<svg width="24" height="24" viewBox="0 0 24 24" fill="none" xmlns="http://www.w3.org/2000/svg">
<path fill-rule="evenodd" clip-rule="evenodd" d="M12.0083 2.16675C6.47396 2.16675 2 6.67369 2 12.2494C2 16.7063 4.86662 20.4791 8.84338 21.8143C9.34058 21.9147 9.5227 21.5974 9.5227 21.3305C9.5227 21.0967 9.50631 20.2955 9.50631 19.4607C6.72225 20.0618 6.14249 18.2588 6.14249 18.2588C5.69508 17.0903 5.03215 16.7899 5.03215 16.7899C4.12092 16.1723 5.09852 16.1723 5.09852 16.1723C6.1093 16.2391 6.63969 17.2072 6.63969 17.2072C7.53432 18.7429 8.97592 18.309 9.55588 18.0418C9.63865 17.3908 9.90394 16.9401 10.1856 16.6897C7.96514 16.456 5.62891 15.588 5.62891 11.7151C5.62891 10.6134 6.02634 9.71198 6.65608 9.01095C6.55672 8.76061 6.20866 7.72544 6.75564 6.33997C6.75564 6.33997 7.60069 6.07283 9.5061 7.37493C10.3219 7.15422 11.1632 7.04195 12.0083 7.041C12.8533 7.041 13.7148 7.15798 14.5102 7.37493C16.4159 6.07283 17.2609 6.33997 17.2609 6.33997C17.8079 7.72544 17.4596 8.76061 17.3603 9.01095C18.0066 9.71198 18.3876 10.6134 18.3876 11.7151C18.3876 15.588 16.0514 16.4392 13.8143 16.6897C14.179 17.0069 14.4936 17.6077 14.4936 18.5593C14.4936 19.9114 14.4773 20.9965 14.4773 21.3303C14.4773 21.5974 14.6596 21.9147 15.1566 21.8145C19.1333 20.4789 22 16.7063 22 12.2494C22.0163 6.67369 17.526 2.16675 12.0083 2.16675Z" fill="#13231C"/>
</svg>
