<svg width="19" height="21" viewBox="0 0 19 21" fill="none" xmlns="http://www.w3.org/2000/svg">
<path fill-rule="evenodd" clip-rule="evenodd" d="M9.86129 0.900493C8.52856 0.209254 7.75691 0.167563 5.66207 0.67361C5.41481 0.733431 4.8197 0.82723 4.33958 0.882236C1.0848 1.25509 0.364044 4.39649 2.60802 8.42871C2.82198 8.81308 2.99421 9.27611 2.99078 9.45777C2.98508 9.76818 2.95572 9.79519 2.49989 9.90811C1.58065 10.1359 0.966975 10.9033 0.569605 12.3214C0.468527 12.6823 0.308286 13.2003 0.213453 13.4726C-0.0210117 14.1463 0.122937 15.0318 0.691752 16.4151C1.45836 18.2796 2.03528 19.1999 2.80494 19.7861C3.37277 20.2184 3.52535 20.2847 3.95594 20.2859C5.2723 20.2893 6.55875 18.9072 6.54067 17.5091C6.53804 17.2999 6.55355 17.1026 6.57518 17.0709C6.59688 17.039 6.80321 17.1417 7.03371 17.2989C7.66829 17.7318 8.48482 17.9068 9.22063 17.7678C9.58275 17.6993 9.90436 17.6061 9.93532 17.5607C9.96627 17.5153 10.3516 17.4895 10.7916 17.5031C13.2667 17.5805 14.5364 17.0357 16.3618 15.1129C17.7605 13.6395 18.1579 12.8867 18.1597 11.7073C18.1609 10.9275 17.5587 9.3297 17.0148 8.66972C16.6904 8.27607 16.5553 7.95672 16.4409 7.31332C16.2607 6.29893 15.6826 5.23429 14.8295 4.34472C14.2413 3.73154 13.9583 3.53652 12.0266 2.41297C11.8867 2.33162 11.484 2.0315 11.1316 1.74611C10.7793 1.46071 10.2076 1.08017 9.86129 0.900493ZM14.5011 4.91259C15.1802 5.68411 15.6819 6.56712 15.7737 7.15221L15.8329 7.52916L15.4969 7.30824C15.3122 7.1867 14.8138 6.96304 14.3892 6.81125C13.6726 6.5549 13.6148 6.51666 13.5817 6.27652C13.5621 6.13426 13.6352 5.88722 13.7442 5.72741C13.9722 5.39315 13.9046 4.93113 13.5295 4.25969L13.2773 3.80814L13.5796 4.00865C13.7459 4.11896 14.1605 4.52571 14.5011 4.91259ZM10.7373 2.55654C10.5615 2.6292 10.3593 2.77418 10.2881 2.87862C10.0909 3.16778 10.2107 3.87513 10.5754 4.57521C10.7559 4.92164 10.9115 5.23282 10.9212 5.26688C10.9309 5.30088 10.782 5.36542 10.5904 5.41024C10.028 5.54179 7.42284 6.64679 6.98931 6.93762C6.77037 7.08467 6.58561 7.17533 6.5788 7.13928C6.57199 7.10324 6.89224 6.40791 7.29055 5.5942C8.18991 3.7568 8.36179 3.17922 8.21788 2.47803C8.11897 1.99582 8.02705 1.8625 7.49305 1.42594L6.88146 0.926072L7.48427 0.922214C8.43715 0.916307 9.22109 1.18206 10.1951 1.84116L11.0569 2.42433L10.7373 2.55654ZM13.1554 4.87219C13.3704 5.35561 13.3059 5.52136 12.9873 5.30401C12.8613 5.21809 12.5231 5.14727 12.2357 5.14659C11.9483 5.14592 11.6667 5.11366 11.6099 5.0749C11.4137 4.94109 10.7727 3.60276 10.797 3.37763C10.8223 3.14283 11.0771 3.06115 11.6057 3.11862C11.9139 3.1521 12.8728 4.23725 13.1554 4.87219ZM7.62375 2.61769C7.72992 3.17945 7.60643 3.55089 6.68028 5.45486C5.90374 7.05137 5.14949 8.97455 5.0291 9.66496C4.98764 9.90238 4.89136 10.1081 4.81502 10.1225C4.64587 10.1545 3.77447 9.17646 3.60267 8.76175C3.47144 8.44504 3.46949 6.29066 3.59942 5.28194C3.81225 3.63071 4.46938 2.2757 5.33966 1.69369C5.70157 1.45163 5.87098 1.4224 6.28224 1.53085C7.11101 1.74961 7.52273 2.08316 7.62375 2.61769ZM12.8282 6.58329C12.6745 6.61226 12.533 6.5504 12.4181 6.40368L12.2426 6.17988L12.5929 6.15111C12.8682 6.12847 12.9561 6.16694 13.0032 6.33062C13.0548 6.51049 13.0309 6.54491 12.8282 6.58329ZM15.7161 8.85376C15.5896 9.27433 15.4576 9.47557 15.0064 9.9358C14.197 10.7615 14.1675 10.7585 13.9743 9.83023C13.8818 9.38549 13.6175 8.62478 13.387 8.1398C12.9111 7.13824 12.9821 7.02751 13.9207 7.30744C14.7508 7.55493 14.8818 7.61563 15.3971 7.99121C15.8704 8.33627 15.8712 8.33823 15.7161 8.85376ZM17.0237 9.87369C17.4309 10.7148 17.6348 11.8356 17.4906 12.4406C17.3925 12.8528 17.2276 13.1508 16.7964 13.6946C16.1105 14.5599 15.0556 15.5862 14.3162 16.1074C13.7011 16.5412 12.3949 16.8978 11.4062 16.9017L10.7639 16.9044L11.5705 15.9046C12.8861 14.2739 13.5829 13.1561 13.8242 12.2893L14.0355 11.5303L14.6963 11.037C15.1727 10.6812 15.5094 10.3212 15.9033 9.74576C16.5257 8.83666 16.5215 8.83619 17.0237 9.87369ZM4.05915 2.16241C3.77657 2.57524 3.46583 3.14661 3.36884 3.43212C3.13002 4.1351 2.91619 5.56159 2.89067 6.62262C2.87903 7.10318 2.84664 7.48063 2.81852 7.46145C2.65803 7.35198 2.15774 5.92589 2.01517 5.17149C1.75138 3.77572 2.01308 2.72631 2.77938 2.10677C3.12781 1.8251 4.41468 1.30374 4.54385 1.39184C4.55994 1.40282 4.34174 1.74959 4.05915 2.16241ZM11.8052 6.92995C11.2381 7.41539 10.9712 7.71661 10.8369 8.02311C10.694 8.34906 10.6032 8.39257 9.79859 8.52149C9.20288 8.61701 8.596 8.83577 7.92801 9.19599L6.93908 9.72905L7.02339 9.31212C7.07363 9.0635 7.32372 8.58375 7.64288 8.12355C8.39887 7.03377 9.09865 6.58028 10.4353 6.31398L11.4724 6.10743L11.7026 6.46397C11.8377 6.67335 11.8802 6.86586 11.8052 6.92995ZM13.0948 9.03424C13.2943 9.52117 13.4334 9.92409 13.4037 9.9297C13.374 9.9354 13.1853 9.76166 12.9845 9.54368C12.7836 9.32569 12.3342 8.98786 11.9857 8.79278C11.4755 8.50731 11.3608 8.40178 11.3965 8.25067C11.4443 8.04896 11.7916 7.69816 12.1213 7.51869C12.3116 7.41506 12.3377 7.43174 12.5283 7.77839C12.6403 7.98224 12.8952 8.54731 13.0948 9.03424ZM12.8831 10.4683C13.0241 10.7262 13.1198 11.0202 13.0958 11.1217C13.0544 11.297 11.8468 11.7577 11.4733 11.741C11.2932 11.7328 11.1437 10.8151 11.147 9.73577C11.1486 9.1559 11.168 9.10502 11.3725 9.14509C11.7509 9.21904 12.6129 9.97424 12.8831 10.4683ZM10.609 11.02L10.7202 11.8271L10.0582 11.8082C9.69418 11.7977 8.99038 11.7084 8.49412 11.6096C7.60909 11.4333 7.58658 11.4219 7.30723 11.0062C7.15066 10.7731 7.06667 10.5177 7.12064 10.4386C7.3329 10.1274 9.30107 9.17859 9.90608 9.09567L10.5334 9.0098L10.5157 9.61137C10.5058 9.94224 10.5478 10.5762 10.609 11.02ZM6.39756 9.49181C6.33512 10.0093 6.24816 10.2366 6.02824 10.4572C5.86959 10.6162 5.70251 10.6958 5.65579 10.6345C5.51855 10.4545 5.87075 8.95202 6.14661 8.5403C6.28615 8.33198 6.5775 8.0192 6.79387 7.8451L7.18733 7.52865L6.83331 8.1718C6.61577 8.56676 6.44771 9.07603 6.39756 9.49181ZM12.26 12.3046C11.9971 12.4417 11.3769 12.531 11.4519 12.421C11.5057 12.3421 12.3641 12.1254 12.434 12.1731C12.4527 12.1858 12.3742 12.245 12.26 12.3046ZM12.663 13.4562C12.448 13.8512 12.148 14.2913 11.9965 14.4342L11.7209 14.6941L11.7243 14.3649C11.7262 14.1839 11.701 13.852 11.6683 13.6274L11.6088 13.219L12.2647 12.9413C12.6254 12.7885 12.9506 12.6803 12.9873 12.7008C13.0239 12.7212 12.878 13.0612 12.663 13.4562ZM10.8039 12.5379C10.7896 12.5588 10.6924 12.5558 10.5879 12.5311C10.4791 12.5053 10.4513 12.4625 10.5227 12.4308C10.6425 12.3774 10.8574 12.4593 10.8039 12.5379ZM11.0823 14.772L11.0455 15.3552L10.5308 15.5653C9.81719 15.8566 9.13391 15.7477 8.35873 15.2189C7.92615 14.9238 7.73004 14.7256 7.71514 14.5685C7.68066 14.2032 7.98698 14.3549 8.57538 14.9944C9.08672 15.5502 9.36872 15.6734 9.38348 15.3474C9.39814 15.0209 8.91455 14.4613 8.19174 13.9683C7.48395 13.4855 7.44545 13.4369 7.15523 12.6611C6.81531 11.7523 6.90727 11.699 7.79758 12.2885C8.37082 12.6682 9.51977 13.0404 10.3991 13.1312L10.9964 13.1929L11.0577 13.6909C11.0914 13.9648 11.1026 14.4513 11.0823 14.772ZM4.85886 11.7897C4.82969 12.7876 4.59762 12.6797 4.13633 11.4541C3.82168 10.6179 3.80349 10.4854 4.01011 10.5306C4.1427 10.5595 4.39273 10.6927 4.56559 10.8265C4.83413 11.0344 4.87682 11.1745 4.85886 11.7897ZM6.43921 12.5312C6.56399 12.778 6.6412 13.0162 6.6109 13.0606C6.55772 13.1386 6.03775 12.2484 5.88989 11.8263C5.77253 11.4913 6.17419 12.0067 6.43921 12.5312ZM3.44079 11.3017C3.59096 11.7981 3.6712 12.22 3.619 12.2392C3.56673 12.2586 3.1553 12.2708 2.70465 12.2663C2.25401 12.2619 1.74332 12.3169 1.56994 12.3886C1.39656 12.4603 1.24298 12.4576 1.2288 12.3826C1.17809 12.1142 1.68066 11.1375 2.01523 10.854C2.30525 10.6084 3.01944 10.2982 3.12669 10.3713C3.14918 10.3867 3.29057 10.8054 3.44079 11.3017ZM10.2563 16.587C9.97368 16.8381 9.33522 16.7409 8.80119 16.3658L8.43789 16.1106L9.06017 16.2572C9.40231 16.3378 9.85838 16.3647 10.0736 16.317C10.5312 16.2158 10.5849 16.2951 10.2563 16.587ZM7.50881 15.7021C7.71705 16.0876 8.0691 16.5228 8.39524 16.7981L8.93618 17.2549L8.51923 17.211C7.95713 17.1519 7.31594 16.8364 6.81599 16.3731C6.45745 16.0407 6.3711 15.8354 6.16308 14.821C6.03134 14.178 5.94264 13.6237 5.96606 13.5894C6.0318 13.493 7.12175 14.9856 7.50881 15.7021ZM4.63972 14.0547C5.54702 15.8163 5.75773 16.3958 5.6611 16.8651C5.54225 17.4435 5.22578 17.6997 4.58971 17.7332C4.10362 17.7588 3.99759 17.7145 3.13174 17.1239C2.24892 16.5217 2.17159 16.4401 1.71255 15.6252C1.26319 14.8275 0.911877 13.5 1.08352 13.2484C1.27693 12.9648 3.67637 12.7422 4.02607 12.9754C4.07437 13.0075 4.35048 13.4932 4.63972 14.0547ZM5.37639 18.9665C4.43189 19.9612 3.42259 19.8773 2.58403 18.7343C2.25976 18.2923 1.23454 16.3122 1.32158 16.2958C1.34742 16.2909 1.54012 16.4998 1.74979 16.76C2.27805 17.4156 3.49856 18.2384 4.05013 18.3107C4.62198 18.3858 5.14055 18.3063 5.57127 18.0775L5.92263 17.8909L5.7808 18.2905C5.70271 18.5101 5.5208 18.8143 5.37639 18.9665Z" fill="#13231C"/>
</svg>
